<svg fill="#FFFFFF" stroke="#000000" id="a80d7a4a-accc-4f30-a7b9-da9069a9f426" data-name="Layer 1" xmlns="http://www.w3.org/2000/svg" viewBox="0 0 151 145.29">
    <path d="M30.7,74.76c-2.94-.13-3.13-2.24-3.41-4.39-3-22.85,14.06-43.65,36.25-46,13.22-1.38,26.72-2.18,39.85.92,18,4.24,30.94,20.73,31.49,39.18a56.9,56.9,0,0,1-.43,6.5c-.17,2-.69,3.71-3.3,3.65,0,4.14-.05,8.08,0,12a3.33,3.33,0,0,0,1,2c3.73,3.86,3.8,8.32.11,12.16-1.43,1.49-1.76,7.28-.44,9,3.52,4.58,4.19,9.54,1.6,14.69s-7,7.63-12.7,7.63q-40,0-79.93,0a13.23,13.23,0,0,1-12.49-7.57c-2.57-5-2-9.94,1.43-14.5,1.62-2.19,1.23-7.51-.61-9.47-3.27-3.49-3.09-8.29.32-11.93A4.36,4.36,0,0,0,30.64,86C30.77,82.3,30.7,78.6,30.7,74.76Zm50-4.73h45.61c3.72,0,3.72,0,3.85-3.86.6-17.64-12.46-34.39-30.29-36.8-11-1.49-22.31-1.26-33.42-.68C45.91,29.76,30.94,46.87,31.63,67.4c.07,2.1.66,2.69,2.77,2.68C49.84,70,65.28,70,80.72,70Zm.21,57.56q19.2,0,38.39,0a16.87,16.87,0,0,0,3.83-.36,9,9,0,0,0,6.57-12.09,2.82,2.82,0,0,0-3-2.17c-4.75.1-9.5,0-14.25.1a3.83,3.83,0,0,0-2.53,1.29c-1.88,2.3-3.55,4.77-5.33,7.15-2.2,2.93-3.57,2.86-5.62-.27-1.36-2.08-2.8-4.12-4-6.29a3.64,3.64,0,0,0-3.7-2q-27.88.09-55.78,0c-2.15,0-3,.89-3.61,2.67a9.33,9.33,0,0,0,2.58,9.5,10.79,10.79,0,0,0,7.59,2.49Q61.49,127.57,80.93,127.59Zm0-29.06q21.74,0,43.47,0a16.93,16.93,0,0,0,3.1-.27,3.2,3.2,0,0,0,2.76-3.43,3.43,3.43,0,0,0-2.91-3.61,11.12,11.12,0,0,0-2.65-.15c-17.22,0-34.45.15-51.67-.11-4.52-.06-8,.59-9.68,5.17a2.22,2.22,0,0,1-.44.58c-1.29,1.49-2.59,1.54-3.82,0a33.91,33.91,0,0,1-2.9-4.15A2.91,2.91,0,0,0,53.29,91c-5.56.07-11.11,0-16.67,0-1,0-2.35,0-3,.58-.94.87-2,2.32-1.86,3.44s1.34,2.37,2.41,3.05c.84.53,2.18.37,3.3.37Q59.22,98.55,81,98.53Zm45.35,4.71H35.53v5.11h2.71c18.34,0,36.68,0,55,0a4.59,4.59,0,0,1,4.5,2.5c1.24,2.15,2.66,4.19,4.15,6.5,1.7-2.28,3.39-4.32,4.81-6.53a5,5,0,0,1,4.81-2.46c4.89.11,9.77,0,14.78,0ZM35.54,83.51v3c5.17,0,10.22.1,15.26,0,4.18-.1,8.39-.56,9.94,5.06A9.79,9.79,0,0,0,61.89,90c1.26-2.93,3.5-3.58,6.57-3.56,18.35.13,36.69.06,55,.06h2.74v-3Zm48.63-8.76H35.58v3.94H84.17Zm22.73,0H89.05v4H106.9Zm5-.13v4.08h14.37V74.59H111.88Z" />
    <path d="M64.94,38.12a2.15,2.15,0,0,1-3.46,1.71,24.19,24.19,0,0,1-4.23-4.17,2.1,2.1,0,0,1,1.59-3.33C60.39,32.16,65,36.55,64.94,38.12Z" />
    <path d="M105,38.42c-.22.32-.53,1.3-1.1,1.49a3.24,3.24,0,0,1-2.62-.19A20.07,20.07,0,0,1,97.5,36a2.62,2.62,0,0,1-.27-2.36,2.94,2.94,0,0,1,2.13-1.16C100.87,32.35,104.86,36.47,105,38.42Z" />
    <path d="M94.92,46.65c0,1.49-4.09,5.74-5.61,5.7a2.6,2.6,0,0,1-2-.93,2.69,2.69,0,0,1,0-2.41,24.64,24.64,0,0,1,4.44-4.28C93.07,43.76,95,45,94.92,46.65Z" />
    <path d="M79.14,32.4c1.62,0,5.66,3.89,5.72,5.56s-1.62,3.07-3,2.09a21.16,21.16,0,0,1-4.61-4.45C76.2,34.25,77.44,32.44,79.14,32.4Z" />
    <path d="M48.92,52.4a2.11,2.11,0,0,1-1.69-3.3,28.33,28.33,0,0,1,4.27-4.21,2.45,2.45,0,0,1,2.21-.09,2.71,2.71,0,0,1,1.1,1.91C55,48.31,50.51,52.48,48.92,52.4Z" />
    <path d="M68.78,52.55c-.5-.39-1.4-.75-1.61-1.35a2.93,2.93,0,0,1,.27-2.4A19.86,19.86,0,0,1,71.38,45a3,3,0,0,1,2.76.06,2.53,2.53,0,0,1,.45,2.45,44.07,44.07,0,0,1-4.42,4.65C69.93,52.42,69.42,52.39,68.78,52.55Z" />
    <path d="M114.86,46.92a3.1,3.1,0,0,1-.5,1.21,22.07,22.07,0,0,1-3.8,3.63,3,3,0,0,1-2.86-.08,3,3,0,0,1-.2-2.9,18.12,18.12,0,0,1,3.89-3.88C112.88,43.77,114.77,44.8,114.86,46.92Z" />
</svg>