<svg fill="#FFFFFF" stroke="#000000" id="f314c0b5-f8e9-4b8d-8873-3544177c39ee" data-name="Layer 1" xmlns="http://www.w3.org/2000/svg" viewBox="0 0 151 145.29">
    <path d="M20.2,122.39c-1.19,0-2.24,0-3.28,0-9.73.24-12.42-7-10.62-16a8,8,0,0,1,7.46-6.53c4.29-.43,8.62-.33,12.93-.42,2,0,3.95,0,6.08,0a41,41,0,0,1,9.92-21.81C55.65,63.17,70.62,55,89.8,59.47c3.41.8,7.17.24,10.72-.19,4.62-.57,7.1-4.55,9.53-8.32.37-.58,0-1.85-.19-2.74-1.09-4.35.31-8.53,3.62-10.57,3.7-2.29,7.42-1.53,10.41,2a10.22,10.22,0,0,0,3,2.78c4.39,2,6.88,6.4,5.88,10.83a8.4,8.4,0,0,1-10,6.7c-.55-.09-1.08-.29-1.77-.48-3.14,5.67-6.26,11.22-9.29,16.83a5.41,5.41,0,0,0-.89,3.17c1.4,6.53,3,13,4.64,20,2.57,0,5.71-.11,8.84,0,10.16.42,12.12,7,10.59,15.75-.7,4-4.33,6.75-8.64,7.08-1.74.13-3.49,0-5.07,0-.31.41-.57.59-.59.79-.9,9.39-3,11.47-11.49,11.47h-76C23.33,134.61,21.77,133.18,20.2,122.39Zm50.33-17.24q-26.07,0-52.14,0c-1.39,0-3.06-.31-4.11.4-1.36.92-3,2.6-3.18,4.16-.73,5.42.86,7.1,5.92,7.2,1.29,0,2.57,0,3.85,0,4.74,0,4.83.12,4.8,5.44,0,6.06.48,6.65,5.9,6.66h75.94c7.72,0,7.81,0,7.89-8.28,0-2.9,1.13-3.89,3.57-3.83a54.31,54.31,0,0,0,7-.14c2.77-.3,4.38-1.8,4.3-5.26-.1-5.09-1.16-6.34-6.54-6.35Q97.13,105.11,70.53,105.15ZM109,98.83c.72-6.3-1.06-11.52-2.62-16.86a9.83,9.83,0,0,1,.19-6.44c3.51-7,7.46-13.83,11.28-20.7,1.14-2,2.5-2.66,4.67-1.33a4.67,4.67,0,0,0,4,.24c.75-.35,1.52-2.67,1.14-3.42-.6-1.18-2.16-1.78-3.3-2.65s-2.77-1.58-3.43-2.84c-1.11-2.08-2.12-3.92-4.52-2.7-2.55,1.29-2.1,3.44-1.05,5.81.53,1.2,1,3.22.48,4.09C111,59.93,105,66.24,95.41,65.5,91.25,65.18,87.12,64.23,83,64c-16.13-1-28.47,6.92-38.41,20.12a29.63,29.63,0,0,0-6.1,14.75Z" />
    <path d="M90.4,31.43a33.66,33.66,0,0,1-1,5.33c-1.7,4.47-2.05,8.77-.16,13.35.4,1-.8,2.72-1.26,4.1-1.09-.66-2.69-1-3.19-2a18.24,18.24,0,0,1-1-14.43c1.24-3.56,2-7,.32-10.73-.43-1,.69-2.76,1.1-4.17,1.13.67,2.79,1,3.28,2.07A38,38,0,0,1,90.4,31.43Z" />
    <path d="M78.56,31.56a41.67,41.67,0,0,1-1.1,5.3,18.27,18.27,0,0,0-.06,13.41c.4,1-.7,2.78-1.11,4.2-1.15-.75-2.85-1.18-3.37-2.29A19.38,19.38,0,0,1,72.16,37c1.2-3.34,1.75-6.48.14-10-.43-.94.71-2.76,1.14-4.17,1.09.7,2.69,1.12,3.19,2.17A39.21,39.21,0,0,1,78.56,31.56Z" />
    <path d="M68,35.58A37.85,37.85,0,0,1,67,40.23c-1.6,4.57-2.21,9-.17,13.72.39.9-.68,2.56-1.08,3.87-1.2-.69-3-1-3.49-2.12-2-4.46-2.72-9.19-.91-14,1.35-3.62,2.21-7.19.3-11-.43-.87.59-2.6.94-3.93,1.18.68,2.94,1,3.44,2.11A39.17,39.17,0,0,1,68,35.58Z" />
</svg>