<svg fill="#FFFFFF" stroke="#000000" id="ea81dbb9-03fa-486f-8659-53df0e020cab" data-name="Layer 1" xmlns="http://www.w3.org/2000/svg" viewBox="0 0 151 145.29">
    <path d="M78.69,35.16a48.36,48.36,0,0,1-.23,96.71c-26.68,0-48.53-22.09-48.31-48.51C30.36,56.76,52.25,35,78.69,35.16Zm44,48C122.19,58.86,102.05,39,78.3,39.39,53.84,39.81,34,59.91,34.4,83.78A44.16,44.16,0,0,0,79.25,127.6C103.69,127.13,123.11,107,122.65,83.15Z" />
    <path d="M7.21,96.75c0-8.2.09-16.41-.09-24.6,0-1.33-1.21-2.64-1.89-3.94-1-2-2.82-3.88-3-5.92-.44-5.15-.11-10.37-.18-15.57,0-2.48,1.15-3.39,3.52-3.35q6.35.1,12.71,0c2.63,0,3.64,1.18,3.58,3.77-.1,4.64.38,9.34-.2,13.92-.32,2.56-2.33,4.9-3.5,7.38-.69,1.47-1.75,3-1.76,4.52-.13,15.85-.08,31.71-.09,47.56,0,1.5.32,3.26-.34,4.43-.75,1.34-2.37,2.88-3.73,3a5.68,5.68,0,0,1-4.17-2.3c-.83-1.19-.81-3.12-.82-4.72C7.17,112.88,7.21,104.81,7.21,96.75Zm4,27,1.14,0V72.27c0-3.07-.74-6.49,3.76-7.3a2.07,2.07,0,0,0,1.3-1.47c.1-5.24.06-10.48.06-15.72l-1.11,0c0,3.77.18,7.55-.1,11.3-.1,1.42-1.28,2.75-2,4.12-.6-1.33-1.62-2.64-1.7-4-.24-3.69-.09-7.39-.09-11.09l-1.2,0c0,4.29.09,8.58-.08,12.86,0,.78-1.12,1.51-1.73,2.26-.68-.7-1.73-1.3-2-2.12a16.68,16.68,0,0,1-.14-4.07V47.83l-1.3.05c0,4.87-.11,9.75.1,14.61a3.6,3.6,0,0,0,2,2.71c3.21.72,3,3,3,5.36q0,24.41,0,48.81Z" />
    <path d="M148.43,82.65c0,13.13,0,26.26,0,39.38,0,3.13-.37,5.9-4.29,6.12-3.19.19-4.7-1.8-4.72-6.21-.05-9.16.2-18.33-.14-27.48-.11-3.1-1.62-6.15-2.5-9.23a14.82,14.82,0,0,1-1.06-3.83c0-7.79-.06-15.58.24-23.37a24,24,0,0,1,7.8-17,14.07,14.07,0,0,1,3.39-1.74c.42,1.2,1.19,2.4,1.2,3.61C148.46,56.13,148.43,69.39,148.43,82.65Zm-5,40.76.76.16V47.82c-1.6,1.38-3,3-3.08,4.66-.68,9.62-1.08,19.27-1.51,28.91,0,.61.51,1.22.69,1.85,1.06,3.85,2.82,7.68,3,11.57C143.72,104.33,143.42,113.88,143.42,123.41Z" />
    <path d="M79,51.51c16.55-.9,32.31,15.32,31.7,32.49a32.48,32.48,0,0,1-32.6,31.68c-16.78.2-32.17-15.26-31.77-33.07C46.66,67,61.16,50.44,79,51.51Zm27.46,32.13a27.91,27.91,0,1,0-28.09,27.78A27.76,27.76,0,0,0,106.44,83.64Z" />
</svg>