<svg fill="#FFFFFF" stroke="#000000" id="bfd5d494-79e5-45ab-a08e-3d5062dc6c6c" data-name="Layer 1" xmlns="http://www.w3.org/2000/svg" viewBox="0 0 151 145.29">
    <path d="M77.39,121.25v11.17c2.64,0,5.16-.12,7.66.07.79.06,1.51,1,2.26,1.48-.72.56-1.43,1.6-2.16,1.62q-9.65.19-19.29,0c-.64,0-1.27-1-1.9-1.47.68-.58,1.32-1.59,2.05-1.65,2.51-.2,5.06-.08,7.81-.08V121.93c-4.66-1.26-9.19-2-13.28-3.71-7.76-3.28-12.15-11.52-11.28-20.71A57.08,57.08,0,0,1,51.75,85.9c2-6.46,1.46-12.07-3.48-17.14-3.89-4-3.77-6-.75-10.46a3.87,3.87,0,0,0,.39-2.71c-.72-3.42.38-6.25,2.31-9a5.11,5.11,0,0,0,.84-3.47A24.86,24.86,0,0,1,64.57,17.25a10.32,10.32,0,0,0,3.61-3.35c1.83-2.66,4.15-4.33,7.39-4.3,3.5,0,6,1.8,7.7,4.88a7.44,7.44,0,0,0,2.74,3c9.53,5.09,14.33,14.27,13.1,25.05a4.89,4.89,0,0,0,1.22,3.38A11,11,0,0,1,103.25,56a3.84,3.84,0,0,0,.46,2.61c2.5,3.62,2.87,6.28-.16,9.19-6.32,6-6.26,12.71-3.62,20.38,3.09,9,3.18,18-3.52,25.67C91.56,119.38,84.75,120.65,77.39,121.25ZM50.24,60.47c-2.92,2.27-1.5,4.15.23,5.89,6.09,6.12,6.94,13.17,4.17,21.11a36.75,36.75,0,0,0-2.17,9.65c-.63,10.14,3.72,18,14,19.72a56.57,56.57,0,0,0,18,0c8.24-1.32,13-6.89,13.71-15.25.35-4-.63-8.07-1.2-12.08a43.91,43.91,0,0,0-1.48-4.74c-1.84-7-.25-13.08,4.89-18.26,2.7-2.72,2.65-3.74.25-5.86-4.34,3.74-8.94,4.36-14,1.22a3.89,3.89,0,0,0-3,0,24.2,24.2,0,0,1-16.53.24,4.65,4.65,0,0,0-3.33.2C59,65,54.57,64.21,50.24,60.47Zm45.9-23.31a7.72,7.72,0,0,0-1.4.62c-.68.56-1.33,1.16-1.95,1.78-4.3,4.32-8.26,4.33-12.63,0-3.78-3.73-5.43-3.7-9.36.15-4.2,4.11-8.16,4-12.42-.12a45.08,45.08,0,0,0-4.05-3.12c0,2.81-.39,4.79.1,6.52.67,2.35.2,3.81-1.52,5.54-2.77,2.8-2.62,6.68-.12,9.61A6.76,6.76,0,0,0,62,59.26a5.1,5.1,0,0,1,5.47-.59,19.2,19.2,0,0,0,15.76-.11c2.17-1,3.7-.94,5.65.7,2.77,2.31,6.85,1.67,9.32-.94s3.15-7,.51-9c-3.59-2.73-3.18-5.74-2.63-9.22A21.94,21.94,0,0,0,96.14,37.16ZM55.1,33a61,61,0,0,1,5,3.83c3.75,3.53,5.49,3.58,9.17,0,3.83-3.75,7.86-4.16,11.46-1.14.68.57,1.22,1.28,1.86,1.89,2.59,2.49,4.89,2.48,7.52.08,1.61-1.47,3.35-2.81,5.13-4.29A20.32,20.32,0,0,0,83.86,20.2c-1.77,4-4.56,6.3-8.6,6.17s-6.71-2.78-8.12-6.58A20.27,20.27,0,0,0,55.1,33Zm20.35-9.82A5.33,5.33,0,0,0,80.81,18a5.35,5.35,0,0,0-5.24-5.28,5.55,5.55,0,0,0-5.24,5A5.44,5.44,0,0,0,75.45,23.18Z" />
    <path d="M93.27,96.7c-.34,9.51-7.06,15.75-16.63,15.1a6.74,6.74,0,0,1-2.17-1,10.53,10.53,0,0,1,1.82-1.94,4.44,4.44,0,0,1,1.94-.26c9.21-.74,13.47-7.09,10.71-16-1-3.36-2.69-6.67-3-10.1-.28-3.25.73-6.64,1.42-9.92.13-.59,1.48-.91,2.26-1.35.19.86.79,1.93.49,2.57-2.5,5.22-1,10.08.93,15C92,91.35,92.54,94.07,93.27,96.7Z" />
</svg>